<svg width="17" height="15" viewBox="0 0 17 15" fill="none" xmlns="http://www.w3.org/2000/svg">
<path d="M7.52021 2.03773C7.99512 3.47426 7.51024 4.92419 6.43755 5.27913C5.36485 5.63408 4.10949 4.75676 3.63458 3.32023C3.15967 1.88369 3.64455 0.433767 4.71724 0.0788198C5.78994 -0.276128 7.0453 0.601195 7.52021 2.03773ZM3.33237 5.57715C3.96005 6.66209 3.80728 7.9245 2.99362 8.39329C2.17997 8.86209 1.01096 8.36316 0.3866 7.27822C-0.237756 6.19329 -0.0916305 4.93088 0.722026 4.46208C1.53568 3.99329 2.70469 4.49222 3.32905 5.57715H3.33237ZM2.2962 12.3613C4.03643 7.62982 7.12832 6.42769 8.49992 6.42769C9.87151 6.42769 12.9634 7.62982 14.7036 12.3613C14.8232 12.6861 14.8763 13.0344 14.8763 13.3826V13.4362C14.8763 14.3002 14.1822 15 13.3254 15C12.9435 15 12.5649 14.9531 12.1962 14.8594L9.27372 14.1227C8.7656 13.9954 8.23423 13.9954 7.72611 14.1227L4.80359 14.8594C4.43496 14.9531 4.05636 15 3.67444 15C2.81761 15 2.12351 14.3002 2.12351 13.4362V13.3826C2.12351 13.0344 2.17664 12.6861 2.2962 12.3613ZM14.0062 8.39329C13.1926 7.9245 13.0398 6.66209 13.6675 5.57715C14.2951 4.49222 15.4608 3.99329 16.2745 4.46208C17.0881 4.93088 17.2409 6.19329 16.6132 7.27822C15.9856 8.36316 14.8199 8.86209 14.0062 8.39329ZM10.2966 5.27913C9.2239 4.92419 8.73903 3.47426 9.21394 2.03773C9.68885 0.601195 10.9442 -0.276128 12.0169 0.0788198C13.0896 0.433767 13.5745 1.88369 13.0996 3.32023C12.6247 4.75676 11.3693 5.63408 10.2966 5.27913Z" fill="#007AFF"/>
</svg>
